<svg width="43" height="43" viewBox="0 0 43 43" fill="none" xmlns="http://www.w3.org/2000/svg">
<path d="M21.2597 42.5194C33.0011 42.5194 42.5194 33.0011 42.5194 21.2597C42.5194 9.5183 33.0011 0 21.2597 0C9.5183 0 0 9.5183 0 21.2597C0 33.0011 9.5183 42.5194 21.2597 42.5194Z" fill="#0071BC"/>
<path d="M22.4963 30.0006C22.4963 30.3982 22.3383 30.7796 22.0571 31.0608C21.776 31.342 21.3946 31.5 20.997 31.5C20.5994 31.5 20.2181 31.342 19.9369 31.0608C19.6557 30.7796 19.4978 30.3982 19.4978 30.0006C19.4978 29.6029 19.6557 29.2215 19.9369 28.9403C20.2181 28.6591 20.5994 28.5011 20.997 28.5011C21.3946 28.5011 21.776 28.6591 22.0571 28.9403C22.3383 29.2215 22.4963 29.6029 22.4963 30.0006ZM23.2909 22.0386C23.0423 22.1587 22.8345 22.3493 22.6932 22.5865C22.5519 22.8238 22.4835 23.0973 22.4963 23.3731V24.0029C22.4963 24.4005 22.3383 24.7819 22.0571 25.0631C21.776 25.3443 21.3946 25.5023 20.997 25.5023C20.5994 25.5023 20.2181 25.3443 19.9369 25.0631C19.6557 24.7819 19.4978 24.4005 19.4978 24.0029V23.3731C19.4809 22.5057 19.7229 21.653 20.1929 20.9239C20.6629 20.1948 21.3396 19.6223 22.1365 19.2797C22.6391 19.0732 23.0761 18.7339 23.4009 18.2983C23.7257 17.8626 23.926 17.3469 23.9804 16.8062C24.0349 16.2655 23.9414 15.7202 23.71 15.2285C23.4785 14.7368 23.1179 14.3173 22.6665 14.0147C22.2152 13.7122 21.6901 13.5379 21.1474 13.5107C20.6048 13.4834 20.0649 13.6041 19.5855 13.86C19.1061 14.1158 18.7052 14.4971 18.4257 14.9631C18.1462 15.4291 17.9985 15.9623 17.9985 16.5057C17.9985 16.9034 17.8406 17.2848 17.5594 17.566C17.2782 17.8472 16.8969 18.0051 16.4993 18.0051C16.1016 18.0051 15.7203 17.8472 15.4391 17.566C15.158 17.2848 15 16.9034 15 16.5057C14.9988 15.626 15.1912 14.7567 15.5634 13.9596C15.9357 13.1625 16.4787 12.4571 17.154 11.8933C17.8293 11.3296 18.6203 10.9213 19.471 10.6974C20.3217 10.4736 21.2112 10.4396 22.0765 10.598C23.2767 10.8162 24.3817 11.3953 25.2443 12.2579C26.1069 13.1206 26.6859 14.2258 26.9041 15.4261C27.1483 16.7753 26.9229 18.1675 26.2654 19.3707C25.608 20.5739 24.5582 21.5155 23.2909 22.0386Z" fill="white"/>
</svg>
