<svg width="213" height="213" viewBox="0 0 213 213" fill="none" xmlns="http://www.w3.org/2000/svg">
<path d="M106.299 212.597C165.006 212.597 212.597 165.006 212.597 106.299C212.597 47.5915 165.006 0 106.299 0C47.5915 0 0 47.5915 0 106.299C0 165.006 47.5915 212.597 106.299 212.597Z" fill="#0071BC"/>
<path d="M112.481 150.003C112.481 151.991 111.692 153.898 110.286 155.304C108.88 156.71 106.973 157.5 104.985 157.5C102.997 157.5 101.09 156.71 99.6844 155.304C98.2786 153.898 97.4888 151.991 97.4888 150.003C97.4888 148.014 98.2786 146.108 99.6844 144.702C101.09 143.296 102.997 142.506 104.985 142.506C106.973 142.506 108.88 143.296 110.286 144.702C111.692 146.108 112.481 148.014 112.481 150.003ZM116.454 110.193C115.211 110.794 114.172 111.746 113.466 112.933C112.76 114.119 112.417 115.486 112.481 116.865V120.014C112.481 122.003 111.692 123.91 110.286 125.316C108.88 126.722 106.973 127.511 104.985 127.511C102.997 127.511 101.09 126.722 99.6844 125.316C98.2786 123.91 97.4888 122.003 97.4888 120.014V116.865C97.4044 112.529 98.6145 108.265 100.965 104.62C103.315 100.974 106.698 98.1116 110.682 96.3983C113.195 95.3658 115.381 93.6697 117.004 91.4914C118.628 89.3131 119.63 86.7345 119.902 84.031C120.174 81.3275 119.707 78.6009 118.55 76.1426C117.393 73.6842 115.589 71.5865 113.333 70.0736C111.076 68.5608 108.451 67.6897 105.737 67.5534C103.024 67.4171 100.324 68.0207 97.9274 69.2998C95.5304 70.5789 93.5261 72.4853 92.1285 74.8153C90.7309 77.1454 89.9926 79.8114 89.9926 82.5286C89.9926 84.5169 89.2028 86.4239 87.797 87.8298C86.3911 89.2358 84.4844 90.0257 82.4963 90.0257C80.5082 90.0257 78.6015 89.2358 77.1956 87.8298C75.7898 86.4239 75 84.5169 75 82.5286C74.9942 78.1298 75.9559 73.7837 77.8171 69.7982C79.6784 65.8127 82.3934 62.2855 85.7699 59.4667C89.1464 56.6479 93.1015 54.6065 97.355 53.4871C101.608 52.3678 106.056 52.198 110.382 52.9898C116.383 54.0809 121.909 56.9763 126.222 61.2896C130.534 65.6029 133.429 71.1291 134.52 77.1306C135.741 83.8767 134.615 90.8376 131.327 96.8536C128.04 102.87 122.791 107.578 116.454 110.193Z" fill="white"/>
</svg>
