<svg width="207" height="214" viewBox="0 0 207 214" fill="none" xmlns="http://www.w3.org/2000/svg">
<path d="M103.477 213.195C160.349 213.195 206.454 165.603 206.454 106.896C206.454 48.1889 160.349 0.597656 103.477 0.597656C46.6043 0.597656 0.5 48.1889 0.5 106.896C0.5 165.603 46.6043 213.195 103.477 213.195Z" fill="#0071BC"/>
<path d="M110.336 109.342L148.699 71.0365C149.845 69.8897 150.49 68.3343 150.49 66.7126C150.49 65.0908 149.845 63.5354 148.699 62.3887C147.552 61.2419 145.997 60.5977 144.375 60.5977C142.754 60.5977 141.199 61.2419 140.052 62.3887L101.75 100.756L63.4481 62.3887C62.3014 61.2419 60.7462 60.5977 59.1246 60.5977C57.503 60.5977 55.9479 61.2419 54.8012 62.3887C53.6546 63.5354 53.0104 65.0908 53.0104 66.7126C53.0104 68.3343 53.6546 69.8897 54.8012 71.0365L93.164 109.342L54.8012 147.648C54.2305 148.215 53.7775 148.888 53.4683 149.63C53.1592 150.372 53 151.168 53 151.972C53 152.776 53.1592 153.572 53.4683 154.314C53.7775 155.057 54.2305 155.73 54.8012 156.296C55.3673 156.867 56.0408 157.32 56.7828 157.629C57.5249 157.938 58.3208 158.098 59.1246 158.098C59.9285 158.098 60.7244 157.938 61.4665 157.629C62.2085 157.32 62.882 156.867 63.4481 156.296L101.75 117.929L140.052 156.296C140.618 156.867 141.291 157.32 142.034 157.629C142.776 157.938 143.571 158.098 144.375 158.098C145.179 158.098 145.975 157.938 146.717 157.629C147.459 157.32 148.133 156.867 148.699 156.296C149.27 155.73 149.723 155.057 150.032 154.314C150.341 153.572 150.5 152.776 150.5 151.972C150.5 151.168 150.341 150.372 150.032 149.63C149.723 148.888 149.27 148.215 148.699 147.648L110.336 109.342Z" fill="white"/>
</svg>
