<svg width="42" height="44" viewBox="0 0 42 44" fill="none" xmlns="http://www.w3.org/2000/svg">
<path d="M21.0954 43.039C32.4698 43.039 41.6907 33.5206 41.6907 21.7792C41.6907 10.0378 32.4698 0.519531 21.0954 0.519531C9.72086 0.519531 0.5 10.0378 0.5 21.7792C0.5 33.5206 9.72086 43.039 21.0954 43.039Z" fill="#0071BC"/>
<path d="M22.4672 22.2685L30.1398 14.6073C30.3691 14.3779 30.4979 14.0669 30.4979 13.7425C30.4979 13.4182 30.3691 13.1071 30.1398 12.8777C29.9104 12.6484 29.5994 12.5195 29.2751 12.5195C28.9508 12.5195 28.6397 12.6484 28.4104 12.8777L20.75 20.5511L13.0896 12.8777C12.8603 12.6484 12.5492 12.5195 12.2249 12.5195C11.9006 12.5195 11.5896 12.6484 11.3602 12.8777C11.1309 13.1071 11.0021 13.4182 11.0021 13.7425C11.0021 14.0669 11.1309 14.3779 11.3602 14.6073L19.0328 22.2685L11.3602 29.9297C11.2461 30.0429 11.1555 30.1776 11.0937 30.3261C11.0318 30.4745 11 30.6337 11 30.7945C11 30.9553 11.0318 31.1145 11.0937 31.2629C11.1555 31.4113 11.2461 31.546 11.3602 31.6592C11.4735 31.7734 11.6082 31.864 11.7566 31.9259C11.905 31.9877 12.0642 32.0195 12.2249 32.0195C12.3857 32.0195 12.5449 31.9877 12.6933 31.9259C12.8417 31.864 12.9764 31.7734 13.0896 31.6592L20.75 23.9859L28.4104 31.6592C28.5236 31.7734 28.6583 31.864 28.8067 31.9259C28.9551 31.9877 29.1143 32.0195 29.2751 32.0195C29.4358 32.0195 29.595 31.9877 29.7434 31.9259C29.8918 31.864 30.0265 31.7734 30.1398 31.6592C30.2539 31.546 30.3445 31.4113 30.4063 31.2629C30.4682 31.1145 30.5 30.9553 30.5 30.7945C30.5 30.6337 30.4682 30.4745 30.4063 30.3261C30.3445 30.1776 30.2539 30.0429 30.1398 29.9297L22.4672 22.2685Z" fill="white"/>
</svg>
