<svg width="810" height="196" viewBox="0 0 810 196" fill="none" xmlns="http://www.w3.org/2000/svg">
<path d="M723.01 0.469727H87.6184C39.61 0.469727 0.691406 39.3982 0.691406 87.4189V108.841C0.691406 156.861 39.61 195.79 87.6184 195.79H723.01C771.019 195.79 809.937 156.861 809.937 108.841V87.4189C809.937 39.3982 771.019 0.469727 723.01 0.469727Z" fill="white"/>
<path d="M206.961 53.3445V99.3937C206.961 111.61 202.882 120.718 194.748 126.693C186.613 132.668 175.735 135.679 162.162 135.679C154.756 135.679 148.055 134.732 142.033 132.838C136.011 130.943 131.203 128.466 127.634 125.406C120.228 119.042 116.538 112.169 116.538 104.834C116.538 104.105 116.805 103.474 117.339 102.964C117.873 102.43 118.504 102.187 119.233 102.187H146.816C148.273 102.187 149.293 103.061 149.876 104.785C151.43 109.522 155.339 111.902 161.604 111.902C165.416 111.902 168.451 111.027 170.709 109.303C172.943 107.578 174.06 105.077 174.06 101.822V75.1548H129.504C128.605 75.1548 127.828 74.839 127.173 74.1833C126.517 73.5275 126.201 72.7504 126.201 71.8517V53.4175C126.201 52.5188 126.517 51.7416 127.173 51.0858C127.828 50.4301 128.605 50.1143 129.504 50.1143H203.707C204.606 50.1143 205.383 50.4301 206.038 51.0858C206.694 51.7173 207.01 52.4945 207.01 53.3688L206.961 53.3445Z" fill="#23353F"/>
<path d="M314.26 85.5483V100.072C314.26 108.257 312.22 115.082 308.165 120.547C304.086 126.011 298.769 129.922 292.164 132.205C285.56 134.488 277.79 135.653 268.854 135.653C259.919 135.653 252.124 134.512 245.544 132.205C238.964 129.897 233.622 126.011 229.543 120.547C225.463 115.082 223.448 108.16 223.448 99.8293V85.7914C223.448 73.8177 227.649 64.8312 236.074 58.8808C244.5 52.9304 255.427 49.9429 268.854 49.9429C282.282 49.9429 293.208 52.9061 301.634 58.8808C310.059 64.8312 314.26 73.7203 314.26 85.5483ZM256.398 83.5811V102.04C256.398 105.197 257.515 107.626 259.749 109.302C261.982 111.002 265.018 111.852 268.854 111.852C272.69 111.852 275.701 110.977 277.96 109.253C280.193 107.528 281.31 105.076 281.31 101.918V83.6784C281.31 80.521 280.193 78.0922 277.96 76.3435C275.726 74.6191 272.69 73.7446 268.854 73.7446C265.018 73.7446 262.007 74.5948 259.749 76.2949C257.515 77.995 256.398 80.4237 256.398 83.5568V83.5811Z" fill="#23353F"/>
<path d="M381.155 82.9259H416.557C417.455 82.9259 418.232 83.2417 418.888 83.8975C419.543 84.5533 419.859 85.3304 419.859 86.229V99.1744C419.859 111.537 415.658 120.717 407.233 126.716C398.807 132.715 387.686 135.678 373.846 135.678C360.006 135.678 348.885 132.764 340.459 126.935C332.034 121.106 327.833 112.071 327.833 99.8542V85.8163C327.833 79.7201 329.023 74.3039 331.427 69.6164C333.83 64.9289 337.181 61.1643 341.503 58.2984C349.953 52.7365 360.758 49.9678 373.846 49.9678C380.353 49.9678 386.327 50.6964 391.717 52.1294C397.132 53.5866 401.43 55.384 404.659 57.5213C407.864 59.6586 410.608 61.9902 412.89 64.4918C416.872 68.8635 418.863 72.7496 418.863 76.1013C418.863 76.8056 418.596 77.4128 418.062 77.9229C417.528 78.4329 416.897 78.6756 416.168 78.6756H388.585C386.958 78.6756 385.768 78.3114 385.04 77.5828C382.514 75.0326 379.066 73.7452 374.72 73.7452C370.374 73.7452 366.95 74.5467 364.473 76.1739C361.997 77.8012 360.758 79.8658 360.758 82.416V102.04C360.758 105.125 361.972 107.529 364.425 109.253C366.877 110.978 370.301 111.852 374.744 111.852C379.188 111.852 382.587 110.978 384.991 109.229C387.395 107.48 388.633 105.416 388.706 103.06H381.13C380.232 103.06 379.455 102.745 378.799 102.089C378.144 101.433 377.828 100.656 377.828 99.7573V86.2047C377.828 85.306 378.144 84.5289 378.799 83.8732C379.455 83.2174 380.232 82.9016 381.13 82.9016L381.155 82.9259Z" fill="#23353F"/>
<path d="M453.27 135.556H430.203C429.475 135.556 428.843 135.288 428.309 134.754C427.775 134.22 427.508 133.71 427.508 133.224C427.508 132.738 427.556 132.374 427.629 132.131L454.241 54.1197C454.97 51.4238 456.815 50.0879 459.729 50.0879H493.674C496.612 50.0879 498.433 51.4238 499.162 54.1197L525.774 132.131C525.847 132.374 525.895 132.738 525.895 133.224C525.895 133.71 525.628 134.22 525.094 134.754C524.56 135.288 523.929 135.556 523.2 135.556H500.133C497.535 135.556 495.69 134.171 494.646 131.402L491.586 122.853H461.793L458.733 131.402C457.665 134.171 455.844 135.556 453.246 135.556H453.27ZM485.37 99.0516L476.702 73.6469L468.033 99.0516H485.37Z" fill="#23353F"/>
<path d="M628.556 131.767C628.726 132.083 628.799 132.544 628.799 133.103C628.799 133.661 628.532 134.22 627.997 134.754C627.463 135.288 626.832 135.556 626.103 135.556H598.399C595.946 135.556 594.247 134.536 593.275 132.496L582.543 108.329H572.296V132.253C572.296 133.151 571.981 133.928 571.325 134.584C570.669 135.24 569.892 135.556 568.994 135.556H542.624C541.726 135.556 540.949 135.24 540.294 134.584C539.638 133.928 539.322 133.151 539.322 132.253V53.3911C539.322 52.4925 539.638 51.7152 540.294 51.0594C540.949 50.4037 541.726 50.0879 542.624 50.0879H590.094C601.24 50.0879 610.078 52.7353 616.585 58.03C623.093 63.3246 626.346 70.5138 626.346 79.6459C626.346 90.721 622.073 98.7359 613.526 103.691L628.532 131.767H628.556ZM572.296 72.7966V85.7421H587.545C589.342 85.7421 590.726 85.1592 591.697 83.9691C592.668 82.779 593.154 81.2973 593.154 79.5243C593.154 77.7513 592.693 76.1728 591.746 74.8127C590.799 73.4769 589.414 72.7966 587.545 72.7966H572.296Z" fill="#23353F"/>
<path d="M671.534 50.0879H696.325C697.223 50.0879 698 50.4037 698.656 51.0594C699.311 51.7152 699.627 52.5653 699.627 53.6339L699.506 100.144C699.506 100.946 699.19 101.675 698.534 102.282C697.879 102.889 697.102 103.205 696.203 103.205H671.558C670.587 103.205 669.785 102.889 669.178 102.282C668.571 101.675 668.256 100.849 668.256 99.7803V53.8769C668.256 52.7354 668.571 51.8124 669.178 51.1324C669.785 50.428 670.587 50.0879 671.558 50.0879H671.534ZM671.534 108.329H696.179C697.078 108.329 697.854 108.645 698.51 109.301C699.166 109.957 699.481 110.734 699.481 111.633V132.277C699.481 133.176 699.166 133.953 698.51 134.609C697.854 135.264 697.078 135.58 696.179 135.58H671.534C670.635 135.58 669.858 135.264 669.203 134.609C668.547 133.953 668.231 133.176 668.231 132.277V111.633C668.231 110.734 668.547 109.957 669.203 109.301C669.858 108.645 670.635 108.329 671.534 108.329Z" fill="#23353F"/>
</svg>
