<?xml version="1.0" encoding="UTF-8"?>
<svg id="Camada_1" data-name="Camada 1" xmlns="http://www.w3.org/2000/svg" viewBox="0 0 1000.62 1037.74">
  <defs>
    <style>
      .cls-1 {
        fill: #fff;
      }

      .cls-2 {
        fill: #1d1d1b;
      }
    </style>
  </defs>
  <circle class="cls-1" cx="500.31" cy="518.87" r="469.79"/>
  <path class="cls-2" d="M518.88,479.78c28,0,49.99-8.79,65.96-26.39,15.96-17.59,23.94-40.7,23.94-69.37s-9.46-50.48-28.34-69.38c-18.9-18.89-44.63-28.34-77.2-28.34-17.59,0-33.22,3.1-46.91,9.28-13.68,6.2-25.4,14.66-35.18,25.41-9.77,10.75-17.1,23.14-21.99,37.14-4.88,14.01-7.33,28.51-7.33,43.49v41.03h-128.99v-52.76c0-29.32,5.37-57.65,16.12-85.01,10.75-27.37,26.38-51.45,46.91-72.31,20.52-20.85,45.92-37.63,76.22-50.33,30.29-12.71,64.65-19.06,103.09-19.06,34.53,0,66.12,5.71,94.79,17.1,28.66,11.41,53.26,27.21,73.78,47.4,20.52,20.2,36.31,43.82,47.4,70.86,11.07,27.04,16.61,56.18,16.61,87.45v5.87c0,26.72-4.08,52.11-12.21,76.21-8.16,24.11-19.72,45.29-34.69,63.53-15,18.24-33.56,32.9-55.7,43.96-22.15,11.09-46.91,16.62-74.27,16.62-9.13,0-15.97,2.61-20.52,7.82-4.57,5.22-6.85,12.38-6.85,21.5v32.25h-123.12v-84.04c0-25.41,8.63-46.73,25.9-64,17.25-17.26,38.6-25.9,64-25.9h18.57Zm46.9,301.95c0,13.04-2.44,25.25-7.32,36.65-4.89,11.4-11.58,21.18-20.03,29.32-8.48,8.15-18.42,14.66-29.81,19.54-11.41,4.89-23.3,7.33-35.67,7.33-13.04,0-25.08-2.44-36.16-7.33-11.08-4.88-20.86-11.39-29.31-19.54-8.48-8.14-15.15-17.92-20.03-29.32-4.89-11.4-7.33-23.61-7.33-36.65s2.44-25.24,7.33-36.65c4.88-11.39,11.56-21.15,20.03-29.32,8.46-8.14,18.23-14.66,29.31-19.54,11.07-4.89,23.12-7.33,36.16-7.33,12.37,0,24.26,2.44,35.67,7.33,11.39,4.88,21.33,11.4,29.81,19.54,8.46,8.16,15.14,17.93,20.03,29.32,4.88,11.41,7.32,23.62,7.32,36.65Z"/>
</svg>