<?xml version="1.0" encoding="UTF-8"?>
<svg id="Camada_1" data-name="Camada 1" xmlns="http://www.w3.org/2000/svg" viewBox="0 0 769.29 70.56">
  <defs>
    <style>
      .cls-1 {
        fill: #fff;
      }
    </style>
  </defs>
  <path class="cls-1" d="M139.29,26.37c7.25-6.99,14.62-10.29,24.09-7.29,2.09,9.07,4.17,18.08,6.24,27.09,.37,.02,.74,.04,1.1,.06,1.93-9.14,3.86-18.28,5.87-27.79h8.51c-.61,3.13-1.2,6.13-2,10.25,6.39-6.38,13.33-9.29,21.23-10.33,12.63-1.67,20.02,4.46,20.05,17.15,.02,10.16-2.79,19.42-9.66,27.13-4.76,5.34-10.75,7.72-17.92,6.58-5.63-.89-9.19-4.13-9.75-9.78-.48-4.9-.1-9.89-.1-15.41-1.48-.75-3.77-1.93-6.5-3.32-2.09,9.34-4.17,18.67-6.28,28.12h-10.77c-2.06-8.55-4.15-17.18-6.23-25.81-.28,.01-.56,.03-.84,.04-2.01,8.55-4.03,17.09-6.07,25.77h-8.4c1.75-8.17,3.43-16.03,5.01-23.41-3.77-1.66-7.13-3.13-10.86-4.76-1.9,8.76-3.96,18.27-6.09,28.06h-11.61c1.62-7.84,3.22-15.53,4.9-23.67h-7.01c-1.72,7.84-3.43,15.61-5.2,23.67h-11.63c2.95-13.99,5.84-27.64,8.76-41.46-5.15,2.35-6.34,5.82-5.56,15.63-6.3,.57-7.52-.41-9.1-7.14-2.2-.83-4.27-1.61-6.29-2.37,1.2-3.14,2.2-5.75,3.16-8.27-4.21-3.1-6.33-.73-8.07,1.73-5.18,7.34-6.96,15.78-7.2,24.56-.08,2.89,.6,5.8,.87,8.17,6.84,3.47,10.92,2.36,18.16-4.39,.77,.34,1.64,.73,2.34,1.04,.59,3.66-5.42,9.9-11.52,12.33-9.3,3.71-16.99,1.36-22.12-6.42-3.66,2.25-7.08,5-10.97,6.61-7.28,3.02-14.71,1.32-18.29-3.48-3.66-4.91-2.9-13.62,1.96-19.54,1.66-2.02,3.86-3.6,5.66-5.24-.77-3.58-1.54-7.21-2.43-11.33-2.22-.36-5.11-.83-8.57-1.39-2.99,13.72-5.92,27.16-8.92,40.91H9.62c2.94-13.96,5.87-27.82,8.81-41.76-8.42-.17-10.5,3.41-9.82,16.01C2.18,43.36-.13,41.31,0,35.31c.18-7.92,6.32-14.93,14.96-16.3,4.39-.7,9-.95,13.4-.44,7.79,.9,15.46,.97,23.19-.3,2.09-.35,4.37-.38,6.44,.06,5.61,1.19,8.57,7.13,6.47,12.45-1.87,4.74-5.04,5.4-9.38,1.71,.88-2.57,4.98-5.09,.98-8.23-4.4,1.18-6.58,3.41-5.8,7.78,.57,3.21,2.94,6.09,4.71,9.52-6.76,3.83-11.67,9.44-9.24,18.5,6.14,3.09,11,1.28,14.38-3.38,2.35-9.42,3.53-16.68,6.03-23.46,2.6-7.03,7.26-12.74,15.2-14.64,7.73-1.85,13.34,.67,16.7,7.97,6.49-6.22,14.27-8.54,23.62-8.37-1.31,6.68-2.49,12.66-3.76,19.12h6.83c1.4-6.05,2.88-12.45,4.39-19.01h11.19c-.31,2.49-.59,4.72-1.02,8.1Zm60.1-1.25c.27-.17,.54-.34,.25-.16,.16-.26,0,0-.15,.25-.82,.21-1.64,.41-2.46,.62-5.04,2.37-7.56,6.31-7.32,11.98,2.41-4.03,4.81-8.05,7.22-12.08,.82-.2,1.64-.4,2.46-.61Zm.6,36.88c10.81-3.64,17.6-29.62,10.82-37.19-5.56,4.36-8.29,10.5-10.02,17.1-1.7,6.46-3.79,13-.8,20.09Zm-48.74-36.26c-6.45,4.86-7.74,11.34-3.65,16.6,1.2-5.46,2.32-10.55,3.65-16.6Z"/>
  <path class="cls-1" d="M275.42,28.29c3.12-5.39,7.21-9.82,12.89-12.54,3.79-1.82,7.86-3.23,11.7-.47,3.77,2.71,2.43,6.77,1.96,10.49l.11,.22-.19-.3c1.19-1,2.5-1.88,3.53-3.01,3.42-3.75,7.21-6.92,12.25-8.23,3.33-.86,6.75-1.23,9.45,1.31,2.79,2.62,2.56,6.13,1.27,9.33-2.55,6.32-5.43,12.51-8.17,18.75-1.34,3.05-2.86,6.03-3.96,9.16-.62,1.75-.54,3.73-.79,5.69,5.77,2.8,8.93-.85,12.59-3.46,3.36-17.93,12.88-31.15,30.01-38.29,9.63-4.01,24.61-4.19,29.98-.3-.75,4.97-2.43,5.87-7.83,5.49-5.4-.38-11.05-1.04-16.25,.05-13,2.72-25.14,18.18-25.57,31.36-.21,6.37,4.2,9.43,9.8,6.26,3.07-1.74,6.09-4.34,7.95-7.3,4.32-6.89,7.94-14.22,11.81-21.39,1.02-1.88,1.96-3.8,3-5.83h8.58c-.91,2.48-1.43,4.14-2.12,5.72-2.96,6.88-6.13,13.67-8.88,20.63-.99,2.5-1.05,5.37-1.51,7.92,4.67,1.82,4.86,1.78,9.49-1.71,3.6-9.96,4.66-10.88,10.91-8.74-.47,2.88-.96,5.86-1.41,8.62,5.63,4.5,16.6,4.18,21.13-.32,3.24-3.21,2.97-7.31-.98-9.58-3.3-1.91-6.93-3.23-10.34-4.96-8.27-4.21-10.01-10.75-5.03-18.59,5.9-9.29,23.28-13.6,32.75-8.12,4.23,2.45,5.48,6.36,3.71,11.65-1.76,5.27-3.57,6.5-9.55,5.71,.47-3.22,.94-6.43,1.38-9.45-5.26-4.17-14.22-3.9-18.66,.3-3.76,3.54-3.46,8.21,.99,10.79,3.44,2,7.21,3.41,10.74,5.26,7.2,3.78,8.92,9.03,5.01,16.11-1.33,2.4-3.33,4.6-5.48,6.34-6.68,5.43-24.11,8.31-33.27,.62-13.17,7.01-18.65,6.24-21.82-3.04-13.64,9.87-19.83,10.25-27.36,1.37-1.03,.64-2.08,1.35-3.19,1.97-2.03,1.13-4,2.42-6.15,3.25-4.25,1.64-8.64,1.93-12.19-1.4-3.61-3.38-2.76-7.75-1.12-11.66,3.21-7.67,6.9-15.15,10.18-22.8,1.1-2.57,1.57-5.42,2.32-8.15-.45-.41-.9-.83-1.34-1.24-2.01,.71-4.51,.9-5.95,2.23-3.51,3.24-7.3,6.58-9.58,10.67-5,8.99-9.2,18.44-13.58,27.76-2.42,5.15-3.96,6.11-9.27,4.83-1.77-3.19,.03-6.1,1.17-8.91,3.88-9.56,8.04-19.02,11.9-28.59,.86-2.13,.96-4.57,1.41-6.87-.44-.39-.87-.78-1.31-1.17-2.34,.81-5.09,1.1-6.94,2.54-2.97,2.32-6.08,5-7.85,8.22-5.53,10.03-10.52,20.36-15.6,30.64-2.32,4.7-3.33,5.34-8.65,4.22-1.99-3.34-.01-6.4,1.13-9.35,3.56-9.16,7.42-18.19,11.02-27.33,1-2.53,1.5-5.25,2.34-8.27-7.35-.6-10.25,6.01-15.33,7.8-2.5-2.3-1.23-4.07,0-5.59,3.96-4.91,8.84-8.6,14.99-10.28,6.9-1.89,10.2,1.46,8.65,8.55-.38,1.75-.54,3.55-.79,5.32-.08-.05-.16-.1-.24-.14,.04,.08,.09,.16,.13,.24Z"/>
  <path class="cls-1" d="M437.25,66.16c5.06-14.92,11.54-29.08,17.91-43.32-11.33-2.62-18.11,1.86-17.76,12.38-1.84,.72-3.96,1.54-5.92,2.3-3.76-5.86-2.6-12.82,3.47-16.67,4.48-2.85,9.92-5.1,15.15-5.67,10.39-1.12,20.93-1.12,31.4-1.1,2.8,0,5.6,1.75,9.75,3.14,4.83-2.35,11.55-4.01,18.67-3.2,9.67,1.09,13.2,9.21,7.46,17.01-2.07,2.81-3.61,3.27-8.4,2.14,.26-1.47,.47-2.99,.82-4.48,.38-1.58,.9-3.12,1.36-4.67-3.44-4.36-7.71-3.2-11.66-2.38-4.25,.88-7.85,3.03-9.04,7.63-.73,2.83,.42,4.99,3.31,5.79,2.36,.65,4.81,.95,7.18,1.39-.06,5-1.18,6.14-5.44,6.66-3.43,.42-6.91,.97-10.17,2.04-1.94,.64-3.84,2.12-5.17,3.71-3.68,4.37-2.21,8.62,3.34,10.12,7.12,1.93,14.22,.91,21.26-.52,3.22-.65,6.36-1.7,8.65-2.33,2.15-6.69,3.39-12.82,6.01-18.3,7.27-15.22,19.11-24.08,36.58-23.86,5.28,.07,10.62,.99,13.22,6.34,2.75,5.66,.69,11.12-3.23,15.19-3.82,3.97-8.74,6.88-12.94,10.08,1.08,2.34,2.72,5.27,3.84,8.39,2.33,6.53,5.43,7.67,11.24,3.75,2.22-1.49,4.36-3.09,6.54-4.65,.43,.34,.85,.67,1.28,1.01-.44,1.61-.42,3.61-1.39,4.78-4.05,4.82-8.97,8.51-15.49,9.15-5.84,.57-9.07-1.61-11.03-7.18-.94-2.66-1.45-5.49-2.49-8.1-.68-1.72-1.97-3.19-3.68-5.87-2.54,5.72-4.36,10.29-6.57,14.67-3.15,6.27-9.47,8.48-15.01,5.3-1.81-1.04-3.23-2.78-4.73-4.11-11.83,5.09-24.02,6.83-36.63,4.3-11.69-2.34-14.87-12.05-6.55-20.59,3.14-3.22,7.51-5.24,11.57-7.98-5.67-4.27-4.07-9.69-.2-15.78h-18.99c-2.66,6.02-5.73,12.64-8.53,19.37-2.94,7.07-5.58,14.26-8.41,21.38-1.87,4.68-4.67,5.64-10.57,2.78Zm107.12-25.32c6.46-.46,11.01-3.05,13.92-8.16,3.79-6.65,.98-11.43-6.7-11.63-16.07-.42-32.21,18.78-29.16,34.84,.29,1.51,1.57,2.84,2.39,4.25,.46-.02,.92-.05,1.37-.07,1.87-3.78,3.73-7.55,5.54-11.2-4.25-4.31-3.34-6.36,3.42-8.73,1.57-3.46,2.95-7.05,4.79-10.38,2.26-4.11,5.72-4.62,9.55-1.34-1.56,3.79-3.19,7.75-5.11,12.43Z"/>
  <path class="cls-1" d="M692.73,70.54c-2.31-.19-4.83-.23-7.29-.62-6.41-1.01-11.26-5.91-10.47-12.52,1.91-16.05,5.17-31.98,12.29-46.57,5.06-10.37,22.23-13.97,32.13-7.82,4.6,2.86,6.66,7.42,5.54,12.45-3.03,13.63-6.13,27.29-10.18,40.64-2.8,9.21-11.79,14.39-22.02,14.44Zm1.31-13.08c3.04-2.83,12.52-39.28,11.46-44.05-2.66,3.11-12.02,39.09-11.46,44.05Z"/>
  <path class="cls-1" d="M648.56,70.56c-1.77-.15-3.76-.32-5.75-.5-8.19-.76-13.78-6.56-12.12-14.5,2.96-14.13,6.35-28.27,10.88-41.97,4.64-14.04,23.47-16.07,33-10.9,4.81,2.61,7.19,7.11,6.1,12.11-3.08,14.12-6.17,28.32-10.61,42.05-3.06,9.47-11.49,13.3-21.51,13.7Zm1.28-13.08c2.84-2.84,12.35-38.87,11.65-44.14-2.84,2.81-12.36,38.88-11.65,44.14Z"/>
  <path class="cls-1" d="M736.95,70.54c-2.31-.19-4.83-.23-7.29-.62-6.38-1.01-11.28-5.97-10.47-12.54,1.98-16.03,5.2-31.98,12.31-46.56,5.05-10.36,22.28-13.93,32.16-7.81,3.33,2.06,5.21,5.14,5.53,9.01,.16,1.97,.16,4.05-.3,5.95-2.87,11.97-5.55,24.01-8.97,35.83-3.09,10.69-11.86,16.7-22.97,16.74Zm1.44-13.08c2.82-2.86,12.27-38.82,11.59-44.11-2.85,2.84-12.33,38.92-11.59,44.11Z"/>
  <path class="cls-1" d="M589.22,40.7h19.3c-1.37,5.96-2.58,11.21-3.79,16.46,.49,.12,.98,.24,1.47,.36,3.38-5.23,4.12-11.23,4.82-17.74-2.96-.6-5.47-1.11-8.48-1.73,.99-3.94,1.9-7.59,2.86-11.39,3.06-.27,5.84-.52,9.41-.84,1.16-4.05,2.33-8.13,3.5-12.21-.67-.22-1.35-.44-2.02-.67-1.24,3.57-2.47,7.14-3.8,10.98h-19.35c2.06-5.56,3.6-10.62,5.81-15.37,1.93-4.15,5.89-6.79,10.21-7.33,5.87-.72,11.96-.85,17.82-.13,6.49,.8,9.52,4.99,9.36,11.53-.17,7.03-1.84,13.56-7.92,17.99,5.9,14.24-2.85,35.4-16.53,38.67-5.45,1.3-11.59,1-17.19,.07-6.28-1.04-9.24-5.73-8.54-12.11,.59-5.41,1.96-10.73,3.07-16.55Z"/>
</svg>