<?xml version="1.0" encoding="UTF-8"?>
<svg id="Camada_1" data-name="Camada 1" xmlns="http://www.w3.org/2000/svg" viewBox="0 0 94 62">
  <defs>
    <style>
      .cls-1 {
        fill: #22b573;
      }
    </style>
  </defs>
  <path class="cls-1" d="M90,0H4C1.79,0,0,1.79,0,4V60c0,1.1,.9,2,2,2,.2,0,.4-.04,.58-.1,.13,.06,.27,.1,.42,.1H92c1.1,0,2-.9,2-2V4c0-2.21-1.79-4-4-4ZM4,60V17H12v22c0,1.85,1.26,3.39,2.97,3.85v17.15H4Zm12.97,0v-17.13c1.74-.44,3.03-2,3.03-3.87V17h7.95V60h-10.97Zm12.97,0V17h7.05v22c0,2.03,1.51,3.68,3.47,3.95v17.05h-10.52Zm12.52,0v-17.05c1.99-.23,3.53-1.9,3.53-3.95V17h6.99V60h-10.52Zm12.52,0V17h7.01v22c0,1.99,1.45,3.63,3.36,3.94v17.07h-10.37Zm12.37,0v-17.04c2.04-.18,3.64-1.88,3.64-3.96V17h4v22c0,1.93,1.36,3.53,3.18,3.91v17.09h-10.82Zm12.82,0v-17.2c1.63-.51,2.82-2.01,2.82-3.8V17h7V60h-9.82Z"/>
</svg>