<?xml version="1.0" encoding="UTF-8"?>
<svg id="Camada_1" data-name="Camada 1" xmlns="http://www.w3.org/2000/svg" viewBox="0 0 77.2 91">
  <defs>
    <style>
      .cls-1 {
        fill: #00a99d;
      }
    </style>
  </defs>
  <path class="cls-1" d="M37.34,43.83c-9.72,0-18.86-1.04-25.73-2.94-3.34-.92-5.97-2-7.8-3.19-1.9-1.24-2.86-2.55-2.86-3.91s.96-2.67,2.86-3.91c1.83-1.2,4.46-2.27,7.8-3.19,6.87-1.9,16.01-2.94,25.73-2.94s18.86,1.04,25.73,2.94c3.34,.92,5.96,2,7.8,3.19,1.9,1.24,2.86,2.55,2.86,3.91s-.96,2.67-2.86,3.91c-1.83,1.19-4.45,2.27-7.8,3.19-6.88,1.9-16.01,2.94-25.73,2.94ZM7,33.79c1.06,.61,2.89,1.44,5.94,2.28,6.45,1.78,15.12,2.76,24.4,2.76s17.95-.98,24.4-2.76c3.05-.84,4.88-1.66,5.94-2.28-1.38-.8-3.46-1.6-5.94-2.28-6.45-1.78-15.12-2.76-24.4-2.76s-17.95,.98-24.4,2.76c-3.05,.84-4.88,1.66-5.94,2.28Z"/>
  <path class="cls-1" d="M37.13,91c-18.45,0-37.13-4.21-37.13-12.25H4c0,2.88,11.38,8.25,33.13,8.25s33.55-5.23,33.55-8.04h4c0,8.27-19.47,12.04-37.55,12.04Z"/>
  <path class="cls-1" d="M74.69,79.38h-4V34.21h4v45.17Zm-70.69-.63H0V34.21H4v44.55Z"/>
  <path class="cls-1" d="M28.77,37.46c-.6,0-1.19-.27-1.59-.78L5.01,7.82c-.67-.88-.51-2.13,.37-2.8,.88-.67,2.13-.51,2.8,.37l22.17,28.86c.67,.88,.51,2.13-.37,2.8-.36,.28-.79,.41-1.22,.41Zm12.55-3.56c-.55,0-1.11-.23-1.5-.68-.73-.83-.65-2.09,.18-2.82L73.87,.5c.83-.73,2.09-.65,2.82,.18,.73,.83,.65,2.09-.18,2.82l-33.88,29.91c-.38,.34-.85,.5-1.32,.5Zm-12.55-9.83c-.67,0-1.33-.34-1.71-.96l-3.97-6.48c-.58-.94-.28-2.17,.66-2.75,.94-.58,2.17-.28,2.75,.66l3.97,6.48c.58,.94,.28,2.17-.66,2.75-.33,.2-.69,.3-1.04,.3Zm6.69-1.67c-1.1,0-2-.9-2-2v-6.9c0-1.1,.9-2,2-2s2,.9,2,2v6.9c0,1.1-.9,2-2,2Z"/>
  <path class="cls-1" d="M18.1,88.33c-.55,0-1-.45-1-1v-29.7c0-.55,.45-1,1-1s1,.45,1,1v29.7c0,.55-.45,1-1,1Zm43.71-1.05c-.55,0-1-.45-1-1V51.77c0-.55,.45-1,1-1s1,.45,1,1v34.51c0,.55-.45,1-1,1ZM9.53,67.83c-.55,0-1-.45-1-1v-27.19c0-.55,.45-1,1-1s1,.45,1,1v27.19c0,.55-.45,1-1,1Zm8.57-19.45c-.55,0-1-.45-1-1v-5.86c0-.55,.45-1,1-1s1,.45,1,1v5.86c0,.55-.45,1-1,1Z"/>
</svg>