<svg width="158" height="159" viewBox="0 0 158 159" fill="none" xmlns="http://www.w3.org/2000/svg">
<ellipse cx="79" cy="79.5" rx="79" ry="79.5" fill="#22B573"/>
<path d="M35 110H47.9729M124 110H111.178M60.9458 110V57H85.9864V110M60.9458 110H73.4661M60.9458 110H47.9729M85.9864 110H98.3559M85.9864 110H73.4661M98.3559 110V87.5886M98.3559 110H111.178M111.178 110V87.5886M73.4661 110V87.5886M47.9729 110V87.5886" stroke="white" stroke-width="2" stroke-linecap="round" stroke-linejoin="round"/>
<rect x="32" y="49" width="94" height="17" rx="4" fill="white"/>
<rect x="44" y="57" width="8" height="35" rx="4" fill="white"/>
<path d="M34 109V59H124V109" stroke="white" stroke-width="4" stroke-linecap="round"/>
<rect x="69" y="57" width="9" height="35" rx="4" fill="white"/>
<rect x="94" y="57" width="9" height="35" rx="4" fill="white"/>
<rect x="107" y="57" width="8" height="35" rx="4" fill="white"/>
</svg>

