<svg width="158" height="159" viewBox="0 0 158 159" fill="none" xmlns="http://www.w3.org/2000/svg">
<ellipse cx="79" cy="79.5" rx="79" ry="79.5" fill="#00A99D"/>
<path d="M114.279 65.7885C114.279 65.8642 114.195 66.5314 112.553 67.6019C111.018 68.6035 108.63 69.6011 105.456 70.4767C99.1429 72.2182 90.2796 73.3269 80.3894 73.3269C70.4992 73.3269 61.636 72.2182 55.323 70.4767C52.1489 69.6011 49.7612 68.6035 48.2254 67.6019C46.5841 66.5314 46.5 65.8642 46.5 65.7885C46.5 65.7127 46.5841 65.0455 48.2254 63.975C49.7612 62.9734 52.1489 61.9758 55.323 61.1002C61.636 59.3587 70.4992 58.25 80.3894 58.25C90.2796 58.25 99.1429 59.3587 105.456 61.1002C108.63 61.9758 111.018 62.9734 112.553 63.975C114.195 65.0455 114.279 65.7127 114.279 65.7885Z" stroke="white" stroke-width="5"/>
<path d="M115.733 110.962C115.733 116.506 100.162 121 80.1803 121C60.1984 121 45.0457 116.297 45.0457 110.752" stroke="white" stroke-width="4"/>
<path d="M45.0457 66.2068V110.752M115.733 66.2068V111.38" stroke="white" stroke-width="4"/>
<path d="M118.243 34L84.363 63.9063M49.6466 38.601L71.8149 67.4615M67.8413 47.5938L71.8149 54.0769M78.5072 45.5024V52.4038" stroke="white" stroke-width="4" stroke-linecap="round"/>
<path d="M52.5746 71.6443V98.8318M61.1491 119.327V89.6299M61.1491 73.5265V79.3823M104.858 118.281V83.7741" stroke="white" stroke-width="2" stroke-linecap="round"/>
</svg>
