<?xml version="1.0" encoding="UTF-8"?>
<svg id="Camada_1" data-name="Camada 1" xmlns="http://www.w3.org/2000/svg" viewBox="0 0 101.79 43.91">
  <defs>
    <style>
      .cls-1 {
        fill: #d9e021;
      }
    </style>
  </defs>
  <path class="cls-1" d="M35.26,43.91c-4.28,0-5.31-6.57-6.6-14.83-.72-4.62-2.23-14.21-4.34-14.21h-.01c-3.1,.05-4.42,3.88-5.96,9.27-1.3,4.57-2.53,8.88-6.34,9.09-4.21,.24-5.4-2.79-6.65-6-.96-2.45-2.16-5.51-4.93-9.07-.68-.87-.52-2.13,.35-2.81,.87-.68,2.13-.52,2.81,.35,3.12,4.02,4.49,7.51,5.49,10.06,1.35,3.43,1.6,3.53,2.71,3.46,.97-.05,2.06-3.9,2.72-6.19,1.53-5.38,3.43-12.08,9.74-12.18,.03,0,.06,0,.09,0,5.52,0,6.86,8.55,8.28,17.6,.61,3.9,1.62,10.36,2.82,11.43,3.06-.55,4.25-12.48,4.97-19.65C41.49,9.29,42.36,.64,47.45,.04c5.77-.68,7.27,7.99,9,18.03,1.3,7.54,3.07,17.86,6.58,17.9h.01c1.99,0,3.33-7.31,4.13-11.68,1.32-7.21,2.46-13.44,6.88-13.9,4.74-.51,6.34,5.76,7.89,11.8,.99,3.88,2.5,9.73,4.33,9.79,.01,0,.03,0,.04,0,1.78,0,3.19-4.04,4.43-7.61,1.76-5.07,3.76-10.83,8.63-11.89,1.08-.24,2.15,.45,2.38,1.53s-.45,2.15-1.53,2.38c-2.68,.59-4.29,5.21-5.71,9.3-1.76,5.06-3.58,10.3-8.17,10.3-.07,0-.13,0-.2,0-4.83-.16-6.48-6.58-8.08-12.79-.74-2.9-2.29-8.95-3.6-8.81-1.43,.15-2.73,7.23-3.35,10.64-1.35,7.36-2.74,14.96-8.05,14.96h-.07c-6.84-.09-8.68-10.84-10.47-21.23-.89-5.17-2.53-14.74-4.52-14.74-.02,0-.05,0-.07,0,0,0-.97,.29-1.9,4.36-.75,3.28-1.18,7.65-1.65,12.27-1.18,11.75-2.29,22.86-8.85,23.26-.09,0-.18,0-.27,0Z"/>
</svg>