<?xml version="1.0" encoding="UTF-8"?>
<svg id="Camada_1" data-name="Camada 1" xmlns="http://www.w3.org/2000/svg" xmlns:xlink="http://www.w3.org/1999/xlink" viewBox="0 0 79.99 68.38">
  <defs>
    <style>
      .cls-1 {
        fill: #8cc63f;
      }

      .cls-2 {
        mask: url(#mask-1);
      }

      .cls-3 {
        mask: url(#mask);
      }
    </style>
    <mask id="mask" x="4" y="24" width="12.66" height="24.26" maskUnits="userSpaceOnUse"/>
    <mask id="mask-1" x="15" y="17" width="17" height="38" maskUnits="userSpaceOnUse"/>
  </defs>
  <g class="cls-3">
    <path class="cls-1" d="M14.66,52.26H6c-3.31,0-6-2.69-6-6V26c0-3.31,2.69-6,6-6H14.66c3.31,0,6,2.69,6,6v20.26c0,3.31-2.69,6-6,6Zm-6.66-8h4.66V28h-4.66v16.26Z"/>
  </g>
  <g class="cls-2">
    <path class="cls-1" d="M30,59h-13c-3.31,0-6-2.69-6-6V19c0-3.31,2.69-6,6-6h13c3.31,0,6,2.69,6,6V53c0,3.31-2.69,6-6,6Zm-11-8h9V21h-9v30Z"/>
  </g>
  <path class="cls-1" d="M55.78,68c-.62,0-1.21-.29-1.6-.8-.45-.6-.87-1.33-1.36-2.17-1.68-2.88-3.97-6.83-9.37-8.95-4.65-1.83-10.52-3.3-12.28-3.3-1.1,0-2-.9-2-2V21.67c0-1.1,.9-2,2-2,.67,0,4.02-.63,10.35-3.41,5.44-2.39,10.41-10.31,12.42-15.05,.37-.88,1.31-1.36,2.24-1.18,.93,.19,1.6,1.01,1.6,1.96V66c0,.86-.55,1.62-1.37,1.9-.21,.07-.42,.1-.63,.1Zm-22.62-19.02c3.06,.49,7.83,1.84,11.74,3.38,4.26,1.67,7,4.32,8.87,6.8V9.81c-2.51,3.81-6.15,8.14-10.65,10.12-4.47,1.96-7.82,3.03-9.96,3.48v25.57Z"/>
  <path class="cls-1" d="M73.36,51.17c-.14,0-.29-.03-.43-.1l-11.25-5.38c-.5-.24-.71-.83-.47-1.33,.24-.5,.84-.71,1.33-.47l11.25,5.38c.5,.24,.71,.83,.47,1.33-.17,.36-.53,.57-.9,.57Zm5.63-14.68h-15.7c-.55,0-1-.45-1-1s.45-1,1-1h15.7c.55,0,1,.45,1,1s-.45,1-1,1Zm-16.88-10.75c-.4,0-.77-.24-.93-.63-.2-.51,.05-1.09,.56-1.3l11.25-4.46c.51-.2,1.09,.05,1.3,.56,.2,.51-.05,1.09-.56,1.3l-11.25,4.46c-.12,.05-.25,.07-.37,.07Z"/>
  <path class="cls-1" d="M29.01,68.38c-.13,0-.27-.01-.4-.03-2.04-.32-3.85-2.96-5.83-6.11-.43-.68-.8-1.27-1.08-1.64-1.22-1.63-2.03-5.03-2.19-6.49-.06-.55,.33-1.04,.88-1.1,.54-.05,1.04,.33,1.1,.88,.16,1.45,.96,4.39,1.81,5.51,.33,.43,.72,1.05,1.17,1.77,1.1,1.74,3.14,4.99,4.45,5.2,.14,.02,.26,0,.44-.14,.49-.41,.56-.72,.56-.92,.03-1.04-1.53-2.51-2.66-3.59-.64-.6-1.19-1.12-1.56-1.62-1.41-1.88-1.32-3.45-1.24-4.97,.02-.36,.04-.74,.04-1.13,0-.55,.45-1,1-1s1,.45,1,1c0,.43-.02,.84-.04,1.24-.07,1.37-.13,2.37,.84,3.66,.27,.36,.79,.85,1.33,1.36,1.49,1.41,3.35,3.17,3.29,5.11-.03,.91-.46,1.71-1.28,2.4-.48,.4-1.04,.61-1.63,.61Z"/>
</svg>