<svg width="607" height="147" viewBox="0 0 607 147" fill="none" xmlns="http://www.w3.org/2000/svg">
<path d="M65.195 146.49L541.739 146.49C577.745 146.49 606.934 117.294 606.934 81.2783L606.934 65.212C606.934 29.1965 577.745 0.000211071 541.739 0.000207923L65.195 0.000166263C29.1887 0.000163115 -0.000111816 29.1964 -0.000114965 65.212L-0.000116369 81.2783C-0.000119518 117.294 29.1887 146.49 65.195 146.49Z" fill="white"/>
<path d="M452.233 106.835L452.233 72.2982C452.233 63.1358 455.292 56.3049 461.393 51.8239C467.493 47.3428 475.652 45.0842 485.832 45.0842C491.386 45.0842 496.413 45.7945 500.929 47.2153C505.445 48.6361 509.051 50.4942 511.728 52.7894C517.282 57.5619 520.05 62.7168 520.05 68.218C520.05 68.7644 519.85 69.2381 519.449 69.6206C519.049 70.0213 518.575 70.2034 518.029 70.2034L497.341 70.2034C496.249 70.2034 495.484 69.5477 495.047 68.2544C493.881 64.7024 490.949 62.9171 486.251 62.9171C483.392 62.9171 481.115 63.573 479.422 64.8663C477.746 66.1597 476.909 68.0358 476.909 70.4767L476.909 90.4774L510.326 90.4774C510.999 90.4774 511.582 90.7142 512.074 91.2061C512.566 91.6979 512.802 92.2807 512.802 92.9547L512.802 106.78C512.802 107.454 512.566 108.037 512.074 108.529C511.582 109.021 510.999 109.258 510.326 109.258L454.673 109.258C453.999 109.258 453.417 109.021 452.925 108.529C452.433 108.056 452.196 107.473 452.196 106.817L452.233 106.835Z" fill="#23353F"/>
<path d="M371.759 82.6817L371.759 71.7886C371.759 65.6499 373.289 60.5314 376.33 56.4329C379.389 52.3344 383.377 49.4016 388.331 47.6893C393.284 45.977 399.112 45.1028 405.813 45.1028C412.515 45.1028 418.361 45.9588 423.296 47.6893C428.231 49.4198 432.237 52.3344 435.297 56.4329C438.356 60.5314 439.868 65.7229 439.868 71.9709L439.868 82.4994C439.868 91.4797 436.717 98.2195 430.398 102.682C424.079 107.145 415.884 109.386 405.813 109.386C395.743 109.386 387.548 107.163 381.229 102.682C374.909 98.2195 371.759 91.5527 371.759 82.6817ZM415.155 84.157L415.155 70.3132C415.155 67.9452 414.318 66.1236 412.642 64.8668C410.967 63.5917 408.691 62.954 405.813 62.954C402.936 62.954 400.678 63.6099 398.984 64.9032C397.309 66.1965 396.471 68.0361 396.471 70.4041L396.471 84.0841C396.471 86.4521 397.309 88.2737 398.984 89.5853C400.66 90.8786 402.936 91.5344 405.813 91.5344C408.691 91.5345 410.949 90.8968 412.642 89.6217C414.318 88.3466 415.155 86.5251 415.155 84.1753L415.155 84.157Z" fill="#23353F"/>
<path d="M321.588 84.6486L295.036 84.6486C294.363 84.6486 293.78 84.4117 293.288 83.9199C292.796 83.4281 292.56 82.8452 292.56 82.1713L292.56 72.4622C292.56 63.1904 295.71 56.305 302.029 51.8057C308.349 47.3065 316.689 45.0843 327.069 45.0843C337.45 45.0843 345.79 47.2701 352.109 51.6419C358.429 56.0136 361.579 62.7899 361.579 71.9523L361.579 82.4808C361.579 87.0529 360.687 91.1151 358.884 94.6307C357.081 98.1463 354.568 100.97 351.326 103.119C344.989 107.291 336.885 109.367 327.069 109.367C322.189 109.367 317.709 108.821 313.666 107.746C309.605 106.653 306.382 105.305 303.96 103.702C301.556 102.099 299.498 100.35 297.786 98.4742C294.8 95.1954 293.306 92.2808 293.306 89.767C293.306 89.2388 293.507 88.7834 293.907 88.4009C294.308 88.0183 294.781 87.8363 295.328 87.8363L316.015 87.8363C317.236 87.8363 318.128 88.1094 318.674 88.6559C320.568 90.5686 323.154 91.5341 326.414 91.5341C329.674 91.5341 332.241 90.933 334.099 89.7126C335.956 88.4921 336.885 86.9437 336.885 85.031L336.885 70.3129C336.885 67.9995 335.975 66.1962 334.135 64.9029C332.296 63.6096 329.728 62.9537 326.396 62.9537C323.063 62.9537 320.513 63.6096 318.711 64.9211C316.908 66.2327 315.979 67.7808 315.924 69.5477L321.606 69.5477C322.28 69.5477 322.863 69.7846 323.354 70.2764C323.846 70.7682 324.083 71.3511 324.083 72.025L324.083 82.1895C324.083 82.8635 323.846 83.4463 323.354 83.9381C322.863 84.43 322.28 84.6668 321.606 84.6668L321.588 84.6486Z" fill="#23353F"/>
<path d="M267.501 45.1755L284.802 45.1755C285.348 45.1755 285.822 45.376 286.222 45.7767C286.623 46.1775 286.823 46.56 286.823 46.9243C286.823 47.2886 286.787 47.5618 286.732 47.7439L266.773 106.253C266.227 108.274 264.843 109.276 262.657 109.276L237.198 109.276C234.995 109.276 233.629 108.274 233.083 106.253L213.124 47.7439C213.069 47.5618 213.032 47.2886 213.032 46.9243C213.032 46.56 213.233 46.1775 213.633 45.7767C214.034 45.376 214.508 45.1755 215.054 45.1755L232.354 45.1755C234.303 45.1755 235.687 46.2139 236.47 48.2905L238.765 54.7022L261.109 54.7022L263.404 48.2905C264.205 46.2139 265.571 45.1755 267.52 45.1755L267.501 45.1755ZM243.427 72.5536L249.928 91.6071L256.429 72.5536L243.427 72.5536Z" fill="#23353F"/>
<path d="M136.036 48.0182C135.909 47.7814 135.854 47.4352 135.854 47.0162C135.854 46.5973 136.054 46.1784 136.455 45.7777C136.856 45.377 137.329 45.1764 137.876 45.1764L158.654 45.1764C160.493 45.1764 161.768 45.9415 162.497 47.4716L170.546 65.5963L178.231 65.5963L178.231 47.6537C178.231 46.9798 178.468 46.3969 178.959 45.9051C179.451 45.4133 180.034 45.1764 180.708 45.1764L200.485 45.1764C201.159 45.1764 201.741 45.4133 202.233 45.9051C202.725 46.3969 202.961 46.9798 202.961 47.6537L202.961 106.8C202.961 107.474 202.725 108.057 202.233 108.549C201.741 109.04 201.159 109.277 200.485 109.277L164.882 109.277C156.523 109.277 149.895 107.292 145.014 103.321C140.134 99.3498 137.693 93.9579 137.693 87.1088C137.693 78.8025 140.899 72.7913 147.309 69.0753L136.054 48.0182L136.036 48.0182ZM178.231 92.2458L178.231 82.5367L166.795 82.5367C165.447 82.5367 164.409 82.9738 163.68 83.8664C162.952 84.759 162.588 85.8703 162.588 87.2C162.588 88.5298 162.934 89.7137 163.644 90.7337C164.354 91.7356 165.392 92.2458 166.795 92.2458L178.231 92.2458Z" fill="#23353F"/>
<path d="M103.804 109.276L85.2102 109.276C84.5364 109.276 83.9537 109.04 83.462 108.548C82.9703 108.056 82.7335 107.418 82.7335 106.617L82.8246 71.734C82.8246 71.1329 83.0614 70.5864 83.5531 70.131C84.0448 69.6756 84.6275 69.4388 85.3014 69.4388L103.785 69.4388C104.514 69.4388 105.115 69.6756 105.57 70.131C106.025 70.5864 106.262 71.2056 106.262 72.007L106.262 106.435C106.262 107.291 106.025 107.983 105.57 108.493C105.115 109.021 104.514 109.276 103.785 109.276L103.804 109.276ZM103.804 65.5953L85.3195 65.5953C84.6457 65.5953 84.063 65.3585 83.5713 64.8667C83.0796 64.3748 82.8428 63.7918 82.8428 63.1178L82.8428 47.6345C82.8428 46.9606 83.0796 46.3777 83.5713 45.8859C84.063 45.3941 84.6457 45.1572 85.3195 45.1572L103.804 45.1572C104.477 45.1572 105.06 45.3941 105.552 45.8859C106.044 46.3777 106.28 46.9606 106.28 47.6345L106.28 63.1178C106.28 63.7918 106.044 64.3748 105.552 64.8667C105.06 65.3585 104.477 65.5953 103.804 65.5953Z" fill="#23353F"/>
</svg>
