<svg width="1539" height="142" viewBox="0 0 1539 142" fill="none" xmlns="http://www.w3.org/2000/svg">
<g clip-path="url(#clip0_197_3)">
<path d="M278.935 53.4602C293.435 39.4802 308.175 32.8802 327.115 38.8802C331.295 57.0202 335.455 75.0402 339.595 93.0602C340.335 93.1002 341.075 93.1402 341.795 93.1802C345.655 74.9002 349.515 56.6202 353.535 37.6002H370.555C369.335 43.8602 368.155 49.8602 366.555 58.1002C379.335 45.3402 393.215 39.5202 409.015 37.4402C434.275 34.1002 449.055 46.3602 449.115 71.7402C449.155 92.0602 443.535 110.58 429.795 126C420.275 136.68 408.295 141.44 393.955 139.16C382.695 137.38 375.575 130.9 374.455 119.6C373.495 109.8 374.255 99.8202 374.255 88.7802C371.295 87.2802 366.715 84.9202 361.255 82.1402C357.075 100.82 352.915 119.48 348.695 138.38H327.155C323.035 121.28 318.855 104.02 314.695 86.7602C314.135 86.7802 313.575 86.8202 313.015 86.8402C308.995 103.94 304.955 121.02 300.875 138.38H284.075C287.575 122.04 290.935 106.32 294.095 91.5602C286.555 88.2402 279.835 85.3002 272.375 82.0402C268.575 99.5602 264.455 118.58 260.195 138.16H236.975C240.215 122.48 243.415 107.1 246.775 90.8202H232.755C229.315 106.5 225.895 122.04 222.355 138.16H199.095C204.995 110.18 210.775 82.8802 216.615 55.2402C206.315 59.9402 203.935 66.8802 205.495 86.5002C192.895 87.6402 190.455 85.6802 187.295 72.2202C182.895 70.5602 178.755 69.0002 174.715 67.4802C177.115 61.2002 179.115 55.9802 181.035 50.9402C172.615 44.7402 168.375 49.4802 164.895 54.4002C154.535 69.0802 150.975 85.9602 150.495 103.52C150.335 109.3 151.695 115.12 152.235 119.86C165.915 126.8 174.075 124.58 188.555 111.08C190.095 111.76 191.835 112.54 193.235 113.16C194.415 120.48 182.395 132.96 170.195 137.82C151.595 145.24 136.215 140.54 125.955 124.98C118.635 129.48 111.795 134.98 104.015 138.2C89.4551 144.24 74.5951 140.84 67.4351 131.24C60.1151 121.42 61.6351 104 71.3551 92.1602C74.6751 88.1202 79.0751 84.9602 82.6751 81.6802C81.1351 74.5202 79.5951 67.2602 77.8151 59.0202C73.3751 58.3002 67.5951 57.3602 60.6751 56.2402C54.6951 83.6802 48.8351 110.56 42.8351 138.06H19.5951C25.4751 110.14 31.3351 82.4202 37.2151 54.5402C20.3751 54.2002 16.2151 61.3602 17.5751 86.5602C4.71505 87.4402 0.0950533 83.3402 0.355053 71.3402C0.715053 55.5002 12.9951 41.4802 30.2751 38.7402C39.0551 37.3402 48.2751 36.8402 57.0751 37.8602C72.6551 39.6602 87.9951 39.8002 103.455 37.2602C107.635 36.5602 112.195 36.5002 116.335 37.3802C127.555 39.7602 133.475 51.6402 129.275 62.2802C125.535 71.7602 119.195 73.0802 110.515 65.7002C112.275 60.5602 120.475 55.5202 112.475 49.2402C103.675 51.6002 99.3151 56.0602 100.875 64.8002C102.015 71.2202 106.755 76.9802 110.295 83.8402C96.7751 91.5002 86.9551 102.72 91.8151 120.84C104.095 127.02 113.815 123.4 120.575 114.08C125.275 95.2402 127.635 80.7202 132.635 67.1602C137.835 53.1002 147.155 41.6802 163.035 37.8802C178.495 34.1802 189.715 39.2202 196.435 53.8202C209.415 41.3802 224.975 36.7402 243.675 37.0802C241.055 50.4402 238.695 62.4002 236.155 75.3202H249.815C252.615 63.2202 255.575 50.4202 258.595 37.3002H280.975C280.355 42.2802 279.795 46.7402 278.935 53.5002V53.4602ZM399.135 50.9602C399.675 50.6202 400.215 50.2802 399.635 50.6402C399.955 50.1202 399.635 50.6402 399.335 51.1402C397.695 51.5602 396.055 51.9602 394.415 52.3802C384.335 57.1202 379.295 65.0002 379.775 76.3402C384.595 68.2802 389.395 60.2402 394.215 52.1802C395.855 51.7802 397.495 51.3802 399.135 50.9602ZM400.335 124.72C421.955 117.44 435.535 65.4802 421.975 50.3402C410.855 59.0602 405.395 71.3402 401.935 84.5402C398.535 97.4602 394.355 110.54 400.335 124.72ZM302.855 52.2002C289.955 61.9202 287.375 74.8802 295.555 85.4002C297.955 74.4802 300.195 64.3002 302.855 52.2002Z" fill="white"/>
<path d="M551.195 57.3002C557.435 46.5202 565.615 37.6602 576.975 32.2202C584.555 28.5802 592.695 25.7602 600.375 31.2802C607.915 36.7002 605.235 44.8202 604.295 52.2602L604.515 52.7002L604.135 52.1002C606.515 50.1002 609.135 48.3402 611.195 46.0802C618.035 38.5802 625.615 32.2402 635.695 29.6202C642.355 27.9002 649.195 27.1602 654.595 32.2402C660.175 37.4802 659.715 44.5002 657.135 50.9002C652.035 63.5402 646.275 75.9202 640.795 88.4002C638.115 94.5002 635.075 100.46 632.875 106.72C631.635 110.22 631.795 114.18 631.295 118.1C642.835 123.7 649.155 116.4 656.475 111.18C663.195 75.3202 682.235 48.8802 716.495 34.6002C735.755 26.5802 765.715 26.2202 776.455 34.0002C774.955 43.9402 771.595 45.7402 760.795 44.9802C749.995 44.2202 738.695 42.9002 728.295 45.0802C702.295 50.5202 678.015 81.4402 677.155 107.8C676.735 120.54 685.555 126.66 696.755 120.32C702.895 116.84 708.935 111.64 712.655 105.72C721.295 91.9402 728.535 77.2802 736.275 62.9402C738.315 59.1802 740.195 55.3402 742.275 51.2802H759.435C757.615 56.2402 756.575 59.5602 755.195 62.7202C749.275 76.4802 742.935 90.0602 737.435 103.98C735.455 108.98 735.335 114.72 734.415 119.82C743.755 123.46 744.135 123.38 753.395 116.4C760.595 96.4802 762.715 94.6402 775.215 98.9202C774.275 104.68 773.295 110.64 772.395 116.16C783.655 125.16 805.595 124.52 814.655 115.52C821.135 109.1 820.595 100.9 812.695 96.3602C806.095 92.5402 798.835 89.9002 792.015 86.4402C775.475 78.0202 771.995 64.9402 781.955 49.2602C793.755 30.6802 828.515 22.0602 847.455 33.0202C855.915 37.9202 858.415 45.7402 854.875 56.3202C851.355 66.8602 847.735 69.3202 835.775 67.7402C836.715 61.3002 837.655 54.8802 838.535 48.8402C828.015 40.5002 810.095 41.0402 801.215 49.4402C793.695 56.5202 794.295 65.8602 803.195 71.0202C810.075 75.0202 817.615 77.8402 824.675 81.5402C839.075 89.1002 842.515 99.6002 834.695 113.76C832.035 118.56 828.035 122.96 823.735 126.44C810.375 137.3 775.515 143.06 757.195 127.68C730.855 141.7 719.895 140.16 713.555 121.6C686.275 141.34 673.895 142.1 658.835 124.34C656.775 125.62 654.675 127.04 652.455 128.28C648.395 130.54 644.455 133.12 640.155 134.78C631.655 138.06 622.875 138.64 615.775 131.98C608.555 125.22 610.255 116.48 613.535 108.66C619.955 93.3202 627.335 78.3602 633.895 63.0602C636.095 57.9202 637.035 52.2202 638.535 46.7602C637.635 45.9402 636.735 45.1002 635.855 44.2802C631.835 45.7002 626.835 46.0802 623.955 48.7402C616.935 55.2202 609.355 61.9002 604.795 70.0802C594.795 88.0602 586.395 106.96 577.635 125.6C572.795 135.9 569.715 137.82 559.095 135.26C555.555 128.88 559.155 123.06 561.435 117.44C569.195 98.3202 577.515 79.4002 585.235 60.2602C586.955 56.0002 587.155 51.1202 588.055 46.5202C587.175 45.7402 586.315 44.9602 585.435 44.1802C580.755 45.8002 575.255 46.3802 571.555 49.2602C565.615 53.9002 559.395 59.2602 555.855 65.7002C544.795 85.7602 534.815 106.42 524.655 126.98C520.015 136.38 517.995 137.66 507.355 135.42C503.375 128.74 507.335 122.62 509.615 116.72C516.735 98.4002 524.455 80.3402 531.655 62.0602C533.655 57.0002 534.655 51.5602 536.335 45.5202C521.635 44.3202 515.835 57.5402 505.675 61.1202C500.675 56.5202 503.215 52.9802 505.675 49.9402C513.595 40.1202 523.355 32.7402 535.655 29.3802C549.455 25.6002 556.055 32.3002 552.955 46.4802C552.195 49.9802 551.875 53.5802 551.375 57.1202C551.215 57.0202 551.055 56.9202 550.895 56.8402C550.975 57.0002 551.075 57.1602 551.155 57.3202L551.195 57.3002Z" fill="white"/>
<path d="M874.855 133.04C884.975 103.2 897.935 74.8804 910.675 46.4004C888.015 41.1604 874.455 50.1204 875.155 71.1604C871.475 72.6004 867.235 74.2404 863.315 75.7604C855.795 64.0404 858.115 50.1204 870.255 42.4204C879.215 36.7204 890.095 32.2204 900.555 31.0804C921.335 28.8404 942.415 28.8404 963.355 28.8804C968.955 28.8804 974.555 32.3804 982.855 35.1604C992.515 30.4604 1005.96 27.1404 1020.2 28.7604C1039.54 30.9404 1046.6 47.1804 1035.12 62.7804C1030.98 68.4004 1027.9 69.3204 1018.32 67.0604C1018.84 64.1204 1019.25 61.0804 1019.95 58.1004C1020.71 54.9404 1021.76 51.8604 1022.68 48.7604C1015.8 40.0404 1007.25 42.3604 999.355 44.0004C990.855 45.7604 983.655 50.0604 981.275 59.2604C979.815 64.9204 982.115 69.2404 987.895 70.8404C992.615 72.1404 997.515 72.7404 1002.26 73.6204C1002.14 83.6204 999.895 85.9004 991.375 86.9404C984.515 87.7804 977.555 88.8804 971.035 91.0204C967.155 92.3004 963.355 95.2604 960.695 98.4404C953.335 107.18 956.275 115.68 967.375 118.68C981.615 122.54 995.815 120.5 1009.89 117.64C1016.33 116.34 1022.61 114.24 1027.19 112.98C1031.49 99.6004 1033.97 87.3404 1039.21 76.3804C1053.75 45.9404 1077.44 28.2204 1112.38 28.6604C1122.94 28.8004 1133.61 30.6404 1138.81 41.3404C1144.31 52.6604 1140.2 63.5804 1132.36 71.7204C1124.72 79.6604 1114.87 85.4804 1106.47 91.8804C1108.63 96.5604 1111.92 102.42 1114.16 108.66C1118.82 121.72 1125.02 124 1136.64 116.16C1141.08 113.18 1145.35 109.98 1149.71 106.86C1150.57 107.54 1151.42 108.2 1152.28 108.88C1151.4 112.1 1151.44 116.1 1149.5 118.44C1141.4 128.08 1131.56 135.46 1118.52 136.74C1106.84 137.88 1100.37 133.52 1096.45 122.38C1094.57 117.06 1093.55 111.4 1091.47 106.18C1090.11 102.74 1087.54 99.8004 1084.12 94.4404C1079.04 105.88 1075.39 115.02 1070.97 123.78C1064.67 136.32 1052.03 140.74 1040.95 134.38C1037.33 132.3 1034.5 128.82 1031.5 126.16C1007.84 136.34 983.455 139.82 958.235 134.76C934.855 130.08 928.495 110.66 945.135 93.5804C951.415 87.1404 960.155 83.1004 968.275 77.6204C956.935 69.0804 960.135 58.2404 967.875 46.0604H929.895C924.575 58.1004 918.435 71.3404 912.835 84.8004C906.955 98.9404 901.675 113.32 896.015 127.56C892.275 136.92 886.675 138.84 874.875 133.12L874.855 133.04ZM1089.09 82.4004C1102.01 81.4804 1111.11 76.3004 1116.93 66.0804C1124.51 52.7804 1118.9 43.2204 1103.54 42.8204C1071.4 41.9804 1039.11 80.3804 1045.21 112.5C1045.79 115.52 1048.36 118.18 1050 121C1050.92 120.96 1051.84 120.9 1052.74 120.86C1056.48 113.3 1060.19 105.76 1063.81 98.4604C1055.31 89.8404 1057.14 85.7404 1070.66 81.0004C1073.8 74.0804 1076.56 66.9004 1080.24 60.2404C1084.76 52.0204 1091.67 51.0004 1099.33 57.5604C1096.21 65.1404 1092.96 73.0604 1089.12 82.4204L1089.09 82.4004Z" fill="white"/>
<path d="M1385.81 141.8C1381.19 141.42 1376.15 141.34 1371.23 140.56C1358.41 138.54 1348.71 128.74 1350.29 115.52C1354.11 83.42 1360.63 51.56 1374.87 22.38C1384.99 1.64004 1419.33 -5.55996 1439.13 6.74004C1448.33 12.46 1452.45 21.58 1450.21 31.64C1444.15 58.9 1437.95 86.22 1429.85 112.92C1424.25 131.34 1406.27 141.7 1385.81 141.8ZM1388.43 115.64C1394.51 109.98 1413.47 37.08 1411.35 27.54C1406.03 33.76 1387.31 105.72 1388.43 115.64Z" fill="white"/>
<path d="M1297.47 141.84C1293.93 141.54 1289.95 141.2 1285.97 140.84C1269.59 139.32 1258.41 127.72 1261.73 111.84C1267.65 83.5804 1274.43 55.3004 1283.49 27.9004C1292.77 -0.179571 1330.43 -4.23957 1349.49 6.10043C1359.11 11.3204 1363.87 20.3204 1361.69 30.3204C1355.53 58.5604 1349.35 86.9604 1340.47 114.42C1334.35 133.36 1317.49 141.02 1297.45 141.82L1297.47 141.84ZM1300.03 115.68C1305.71 110 1324.73 37.9404 1323.33 27.4004C1317.65 33.0204 1298.61 105.16 1300.03 115.68Z" fill="white"/>
<path d="M1474.26 141.8C1469.64 141.42 1464.6 141.34 1459.68 140.56C1446.92 138.54 1437.12 128.62 1438.74 115.48C1442.7 83.42 1449.14 51.52 1463.36 22.36C1473.46 1.63999 1507.92 -5.50001 1527.68 6.73999C1534.34 10.86 1538.1 17.02 1538.74 24.76C1539.06 28.7 1539.06 32.86 1538.14 36.66C1532.4 60.6 1527.04 84.68 1520.2 108.32C1514.02 129.7 1496.48 141.72 1474.26 141.8ZM1477.14 115.64C1482.78 109.92 1501.68 38 1500.32 27.42C1494.62 33.1 1475.66 105.26 1477.14 115.64Z" fill="white"/>
<path d="M1178.8 82.1202H1217.4C1214.66 94.0402 1212.24 104.54 1209.82 115.04C1210.8 115.28 1211.78 115.52 1212.76 115.76C1219.52 105.3 1221 93.3002 1222.4 80.2802C1216.48 79.0802 1211.46 78.0602 1205.44 76.8202C1207.42 68.9402 1209.24 61.6402 1211.16 54.0402C1217.28 53.5002 1222.84 53.0002 1229.98 52.3602C1232.3 44.2602 1234.64 36.1002 1236.98 27.9402C1235.64 27.5002 1234.28 27.0602 1232.94 26.6002C1230.46 33.7402 1228 40.8802 1225.34 48.5602H1186.64C1190.76 37.4402 1193.84 27.3202 1198.26 17.8202C1202.12 9.52016 1210.04 4.24016 1218.68 3.16016C1230.42 1.72016 1242.6 1.46016 1254.32 2.90016C1267.3 4.50016 1273.36 12.8802 1273.04 25.9602C1272.7 40.0202 1269.36 53.0802 1257.2 61.9402C1269 90.4202 1251.5 132.74 1224.14 139.28C1213.24 141.88 1200.96 141.28 1189.76 139.42C1177.2 137.34 1171.28 127.96 1172.68 115.2C1173.86 104.38 1176.6 93.7402 1178.82 82.1002L1178.8 82.1202Z" fill="white"/>
</g>
<defs>
<clipPath id="clip0_197_3">
<rect width="1538.58" height="141.12" fill="white" transform="translate(0.35498 0.720215)"/>
</clipPath>
</defs>
</svg>
