<svg width="1539" height="142" viewBox="0 0 1539 142" fill="none" xmlns="http://www.w3.org/2000/svg">
<g clip-path="url(#clip0_197_3)">
<path d="M1260.35 89.1003C1245.85 103.08 1231.11 109.68 1212.17 103.68C1207.99 85.5403 1203.83 67.5203 1199.69 49.5003C1198.95 49.4603 1198.21 49.4203 1197.49 49.3803C1193.63 67.6603 1189.77 85.9403 1185.75 104.96L1168.73 104.96C1169.95 98.7003 1171.13 92.7003 1172.73 84.4603C1159.95 97.2203 1146.07 103.04 1130.27 105.12C1105.01 108.46 1090.23 96.2003 1090.17 70.8203C1090.13 50.5003 1095.75 31.9803 1109.49 16.5603C1119.01 5.88027 1130.99 1.12027 1145.33 3.40027C1156.59 5.18027 1163.71 11.6603 1164.83 22.9603C1165.79 32.7603 1165.03 42.7403 1165.03 53.7803C1167.99 55.2803 1172.57 57.6403 1178.03 60.4203C1182.21 41.7403 1186.37 23.0803 1190.59 4.18028L1212.13 4.18028C1216.25 21.2803 1220.43 38.5403 1224.59 55.8003C1225.15 55.7803 1225.71 55.7403 1226.27 55.7203C1230.29 38.6203 1234.33 21.5403 1238.41 4.18028L1255.21 4.18028C1251.71 20.5203 1248.35 36.2403 1245.19 51.0003C1252.73 54.3203 1259.45 57.2603 1266.91 60.5203C1270.71 43.0003 1274.83 23.9803 1279.09 4.40028L1302.31 4.40029C1299.07 20.0803 1295.87 35.4603 1292.51 51.7403L1306.53 51.7403C1309.97 36.0603 1313.39 20.5203 1316.93 4.40029L1340.19 4.40029C1334.29 32.3803 1328.51 59.6803 1322.67 87.3203C1332.97 82.6203 1335.35 75.6803 1333.79 56.0603C1346.39 54.9203 1348.83 56.8803 1351.99 70.3403C1356.39 72.0003 1360.53 73.5603 1364.57 75.0803C1362.17 81.3603 1360.17 86.5803 1358.25 91.6203C1366.67 97.8203 1370.91 93.0803 1374.39 88.1603C1384.75 73.4803 1388.31 56.6003 1388.79 39.0403C1388.95 33.2603 1387.59 27.4403 1387.05 22.7003C1373.37 15.7603 1365.21 17.9803 1350.73 31.4803C1349.19 30.8003 1347.45 30.0203 1346.05 29.4003C1344.87 22.0803 1356.89 9.60029 1369.09 4.74029C1387.69 -2.67971 1403.07 2.02029 1413.33 17.5803C1420.65 13.0803 1427.49 7.5803 1435.27 4.3603C1449.83 -1.67969 1464.69 1.7203 1471.85 11.3203C1479.17 21.1403 1477.65 38.5603 1467.93 50.4003C1464.61 54.4403 1460.21 57.6003 1456.61 60.8803C1458.15 68.0403 1459.69 75.3003 1461.47 83.5403C1465.91 84.2603 1471.69 85.2003 1478.61 86.3203C1484.59 58.8803 1490.45 32.0003 1496.45 4.50031L1519.69 4.50031C1513.81 32.4203 1507.95 60.1403 1502.07 88.0203C1518.91 88.3603 1523.07 81.2003 1521.71 56.0003C1534.57 55.1203 1539.19 59.2203 1538.93 71.2203C1538.57 87.0603 1526.29 101.08 1509.01 103.82C1500.23 105.22 1491.01 105.72 1482.21 104.7C1466.63 102.9 1451.29 102.76 1435.83 105.3C1431.65 106 1427.09 106.06 1422.95 105.18C1411.73 102.8 1405.81 90.9203 1410.01 80.2803C1413.75 70.8003 1420.09 69.4803 1428.77 76.8603C1427.01 82.0003 1418.81 87.0403 1426.81 93.3203C1435.61 90.9603 1439.97 86.5003 1438.41 77.7603C1437.27 71.3403 1432.53 65.5803 1428.99 58.7203C1442.51 51.0603 1452.33 39.8403 1447.47 21.7203C1435.19 15.5403 1425.47 19.1603 1418.71 28.4803C1414.01 47.3203 1411.65 61.8403 1406.65 75.4003C1401.45 89.4603 1392.13 100.88 1376.25 104.68C1360.79 108.38 1349.57 103.34 1342.85 88.7403C1329.87 101.18 1314.31 105.82 1295.61 105.48C1298.23 92.1203 1300.59 80.1603 1303.13 67.2403L1289.47 67.2403C1286.67 79.3403 1283.71 92.1403 1280.69 105.26L1258.31 105.26C1258.93 100.28 1259.49 95.8203 1260.35 89.0603L1260.35 89.1003ZM1140.15 91.6003C1139.61 91.9403 1139.07 92.2803 1139.65 91.9203C1139.33 92.4403 1139.65 91.9203 1139.95 91.4203C1141.59 91.0003 1143.23 90.6003 1144.87 90.1803C1154.95 85.4403 1159.99 77.5603 1159.51 66.2203C1154.69 74.2803 1149.89 82.3203 1145.07 90.3803C1143.43 90.7803 1141.79 91.1803 1140.15 91.6003ZM1138.95 17.8403C1117.33 25.1203 1103.75 77.0803 1117.31 92.2203C1128.43 83.5003 1133.89 71.2203 1137.35 58.0203C1140.75 45.1003 1144.93 32.0203 1138.95 17.8403ZM1236.43 90.3603C1249.33 80.6403 1251.91 67.6803 1243.73 57.1603C1241.33 68.0803 1239.09 78.2603 1236.43 90.3603Z" fill="white"/>
<path d="M988.095 85.2604C981.855 96.0404 973.675 104.9 962.315 110.34C954.735 113.98 946.595 116.8 938.915 111.28C931.375 105.86 934.055 97.7404 934.995 90.3004L934.775 89.8604L935.155 90.4604C932.775 92.4604 930.155 94.2204 928.095 96.4804C921.255 103.98 913.675 110.32 903.595 112.94C896.935 114.66 890.095 115.4 884.695 110.32C879.115 105.08 879.575 98.0603 882.155 91.6603C887.255 79.0203 893.015 66.6403 898.495 54.1604C901.175 48.0604 904.215 42.1004 906.415 35.8404C907.655 32.3404 907.495 28.3804 907.995 24.4604C896.455 18.8604 890.135 26.1604 882.815 31.3804C876.095 67.2404 857.055 93.6803 822.795 107.96C803.535 115.98 773.575 116.34 762.835 108.56C764.335 98.6203 767.695 96.8203 778.495 97.5803C789.295 98.3403 800.595 99.6603 810.995 97.4803C836.995 92.0403 861.275 61.1203 862.135 34.7603C862.555 22.0203 853.735 15.9003 842.535 22.2403C836.395 25.7203 830.355 30.9203 826.635 36.8403C817.995 50.6203 810.755 65.2803 803.015 79.6203C800.975 83.3803 799.095 87.2203 797.015 91.2803L779.855 91.2803C781.675 86.3203 782.715 83.0003 784.095 79.8403C790.015 66.0803 796.355 52.5003 801.855 38.5803C803.835 33.5803 803.955 27.8403 804.875 22.7403C795.535 19.1003 795.155 19.1803 785.895 26.1603C778.695 46.0803 776.575 47.9203 764.075 43.6403C765.015 37.8803 765.995 31.9203 766.895 26.4003C755.635 17.4003 733.695 18.0403 724.635 27.0403C718.155 33.4603 718.695 41.6603 726.595 46.2003C733.195 50.0203 740.455 52.6603 747.275 56.1203C763.815 64.5403 767.295 77.6203 757.335 93.3003C745.535 111.88 710.775 120.5 691.835 109.54C683.375 104.64 680.875 96.8203 684.415 86.2403C687.935 75.7003 691.555 73.2403 703.515 74.8203C702.575 81.2603 701.635 87.6803 700.755 93.7203C711.275 102.06 729.195 101.52 738.075 93.1203C745.595 86.0403 744.995 76.7003 736.095 71.5403C729.215 67.5403 721.675 64.7203 714.615 61.0203C700.215 53.4603 696.775 42.9603 704.595 28.8003C707.255 24.0003 711.255 19.6003 715.555 16.1203C728.915 5.26033 763.775 -0.49966 782.095 14.8803C808.435 0.860343 819.395 2.40035 825.735 20.9603C853.015 1.22035 865.395 0.460345 880.455 18.2203C882.515 16.9403 884.615 15.5204 886.835 14.2804C890.895 12.0204 894.835 9.44035 899.135 7.78035C907.635 4.50035 916.415 3.92036 923.515 10.5804C930.735 17.3404 929.035 26.0804 925.755 33.9004C919.335 49.2404 911.955 64.2004 905.395 79.5004C903.195 84.6404 902.255 90.3403 900.755 95.8003C901.655 96.6203 902.555 97.4603 903.435 98.2803C907.455 96.8603 912.455 96.4804 915.335 93.8204C922.355 87.3404 929.935 80.6604 934.495 72.4804C944.495 54.5004 952.895 35.6004 961.655 16.9604C966.495 6.66036 969.575 4.74036 980.195 7.30036C983.735 13.6804 980.135 19.5004 977.855 25.1204C970.095 44.2404 961.775 63.1604 954.055 82.3004C952.335 86.5604 952.135 91.4404 951.235 96.0404C952.115 96.8204 952.975 97.6004 953.855 98.3804C958.535 96.7604 964.035 96.1804 967.735 93.3004C973.675 88.6604 979.895 83.3004 983.435 76.8604C994.495 56.8004 1004.47 36.1404 1014.63 15.5804C1019.27 6.18036 1021.29 4.90036 1031.93 7.14037C1035.91 13.8204 1031.95 19.9404 1029.67 25.8404C1022.55 44.1604 1014.83 62.2204 1007.63 80.5004C1005.63 85.5604 1004.63 91.0004 1002.95 97.0404C1017.65 98.2404 1023.45 85.0204 1033.61 81.4404C1038.61 86.0404 1036.07 89.5804 1033.61 92.6204C1025.69 102.44 1015.93 109.82 1003.63 113.18C989.835 116.96 983.235 110.26 986.335 96.0804C987.095 92.5804 987.415 88.9804 987.915 85.4404C988.075 85.5404 988.235 85.6404 988.395 85.7204C988.315 85.5604 988.215 85.4004 988.135 85.2404L988.095 85.2604Z" fill="white"/>
<path d="M664.435 9.52009C654.315 39.3601 641.355 67.6801 628.615 96.1601C651.275 101.4 664.835 92.4401 664.135 71.4001C667.815 69.9601 672.055 68.3201 675.975 66.8001C683.495 78.5201 681.175 92.4401 669.035 100.14C660.075 105.84 649.195 110.34 638.735 111.48C617.955 113.72 596.875 113.72 575.935 113.68C570.335 113.68 564.735 110.18 556.435 107.4C546.775 112.1 533.335 115.42 519.095 113.8C499.755 111.62 492.695 95.3801 504.175 79.7801C508.315 74.1601 511.395 73.2401 520.975 75.5001C520.455 78.4401 520.035 81.4801 519.335 84.4601C518.575 87.6201 517.535 90.7001 516.615 93.8001C523.495 102.52 532.035 100.2 539.935 98.5601C548.435 96.8001 555.635 92.5001 558.015 83.3001C559.475 77.6401 557.175 73.3201 551.395 71.7201C546.675 70.4201 541.775 69.8201 537.035 68.9401C537.155 58.9401 539.395 56.6601 547.915 55.6201C554.775 54.7801 561.735 53.6801 568.255 51.5401C572.135 50.2601 575.935 47.3001 578.595 44.1201C585.955 35.3801 583.015 26.8801 571.915 23.8801C557.675 20.0201 543.475 22.0601 529.395 24.9201C522.955 26.2201 516.675 28.3201 512.095 29.5801C507.795 42.9601 505.315 55.2201 500.075 66.1801C485.535 96.6201 461.855 114.34 426.915 113.9C416.355 113.76 405.675 111.92 400.475 101.22C394.975 89.9001 399.095 78.9801 406.935 70.8401C414.575 62.9001 424.415 57.0801 432.815 50.6801C430.655 46.0001 427.375 40.1401 425.135 33.9001C420.475 20.8401 414.275 18.5601 402.655 26.4001C398.215 29.3801 393.935 32.5801 389.575 35.7001C388.715 35.0201 387.875 34.3601 387.015 33.6801C387.895 30.4601 387.855 26.4601 389.795 24.1201C397.895 14.4801 407.735 7.10008 420.775 5.82008C432.455 4.68008 438.915 9.04008 442.835 20.1801C444.715 25.5001 445.735 31.1601 447.815 36.3801C449.175 39.8201 451.755 42.7601 455.175 48.1201C460.255 36.6801 463.895 27.5401 468.315 18.7801C474.615 6.24009 487.255 1.82008 498.335 8.18008C501.955 10.2601 504.795 13.7401 507.795 16.4001C531.455 6.22009 555.835 2.7401 581.055 7.8001C604.435 12.4801 610.795 31.9001 594.155 48.9801C587.875 55.4201 579.135 59.4601 571.015 64.9401C582.355 73.4801 579.155 84.3201 571.415 96.5001L609.395 96.5001C614.715 84.4601 620.855 71.2201 626.455 57.7601C632.335 43.6201 637.615 29.2401 643.275 15.0001C647.015 5.6401 652.615 3.72011 664.415 9.44011L664.435 9.52009ZM450.195 60.1601C437.275 61.0801 428.175 66.2601 422.355 76.4801C414.775 89.7801 420.395 99.3401 435.755 99.7401C467.895 100.58 500.175 62.1801 494.075 30.0601C493.495 27.0401 490.935 24.3801 489.295 21.5601C488.375 21.6001 487.455 21.6601 486.555 21.7001C482.815 29.2601 479.095 36.8001 475.475 44.1001C483.975 52.7201 482.155 56.8201 468.635 61.5601C465.495 68.4801 462.735 75.6601 459.055 82.3201C454.535 90.5401 447.615 91.5601 439.955 85.0001C443.075 77.4201 446.335 69.5001 450.175 60.1401L450.195 60.1601Z" fill="white"/>
<path d="M153.475 0.760007C158.095 1.14001 163.135 1.22001 168.055 2.00001C180.875 4.02001 190.575 13.82 188.995 27.04C185.175 59.14 178.655 91 164.415 120.18C154.295 140.92 119.955 148.12 100.155 135.82C90.9546 130.1 86.8346 120.98 89.0746 110.92C95.1346 83.66 101.335 56.34 109.435 29.64C115.035 11.22 133.015 0.860005 153.475 0.760007ZM150.855 26.92C144.775 32.58 125.815 105.48 127.935 115.02C133.255 108.8 151.975 36.84 150.855 26.92Z" fill="white"/>
<path d="M241.815 0.72012C245.355 1.02012 249.335 1.36012 253.315 1.72012C269.695 3.24012 280.875 14.8401 277.555 30.7201C271.635 58.9801 264.855 87.2601 255.795 114.66C246.515 142.74 208.855 146.8 189.795 136.46C180.175 131.24 175.415 122.24 177.595 112.24C183.755 84.0001 189.935 55.6001 198.815 28.1401C204.935 9.20011 221.795 1.54011 241.835 0.740109L241.815 0.72012ZM239.255 26.8801C233.575 32.5601 214.555 104.62 215.955 115.16C221.635 109.54 240.675 37.4001 239.255 26.8801Z" fill="white"/>
<path d="M65.035 0.760068C69.655 1.14007 74.695 1.22007 79.615 2.00007C92.375 4.02008 102.175 13.9401 100.555 27.0801C96.595 59.1401 90.155 91.0401 75.935 120.2C65.835 140.92 31.375 148.06 11.615 135.82C4.95503 131.7 1.19497 125.54 0.554972 117.8C0.234972 113.86 0.234948 109.7 1.15495 105.9C6.89495 81.9601 12.255 57.8801 19.095 34.2401C25.275 12.8601 42.815 0.840066 65.035 0.760068ZM62.155 26.9201C56.515 32.6401 37.615 104.56 38.975 115.14C44.675 109.46 63.635 37.3001 62.155 26.9201Z" fill="white"/>
<path d="M360.495 60.4404L321.895 60.4404C324.635 48.5204 327.055 38.0204 329.475 27.5204C328.495 27.2804 327.515 27.0404 326.535 26.8004C319.775 37.2604 318.295 49.2604 316.895 62.2804C322.815 63.4804 327.835 64.5004 333.855 65.7404C331.875 73.6204 330.055 80.9204 328.135 88.5204C322.015 89.0604 316.455 89.5604 309.315 90.2004C306.995 98.3004 304.655 106.46 302.315 114.62C303.655 115.06 305.015 115.5 306.355 115.96C308.835 108.82 311.295 101.68 313.955 94.0004L352.655 94.0004C348.535 105.12 345.455 115.24 341.035 124.74C337.175 133.04 329.255 138.32 320.615 139.4C308.875 140.84 296.695 141.1 284.975 139.66C271.995 138.06 265.935 129.68 266.255 116.6C266.595 102.54 269.935 89.4804 282.095 80.6204C270.295 52.1404 287.795 9.82039 315.155 3.28039C326.055 0.680392 338.335 1.28039 349.535 3.14039C362.095 5.2204 368.015 14.6004 366.615 27.3604C365.435 38.1804 362.695 48.8204 360.475 60.4604L360.495 60.4404Z" fill="white"/>
</g>
<defs>
<clipPath id="clip0_197_3">
<rect width="1538.58" height="141.12" fill="white" transform="translate(1538.93 141.84) rotate(-180)"/>
</clipPath>
</defs>
</svg>
